<svg width="152" height="40" viewBox="0 0 152 40" fill="none" xmlns="http://www.w3.org/2000/svg">
<path d="M15.7917 39.987C17.2017 39.987 29.8915 39.761 32.6551 32.711C32.9371 31.753 33.1627 30.794 33.1627 29.835C33.6139 20.247 22.334 17.653 17.4837 16.581C8.34707 14.495 7.38828 12.013 7.44468 10.265C7.55748 7.275 14.7202 7.16299 16.1301 7.16299C16.6377 7.16299 17.0889 7.21899 17.5401 7.21899C21.1497 7.50099 24.59 8.74199 27.5792 10.829L33.1627 6.147C28.3123 2.312 21.9392 0 15.7353 0C9.81344 0 0.056399 2.425 0.225596 9.983C0 16.807 4.96312 21.15 15.9045 23.631C24.9284 25.662 26.0564 27.748 25.9436 29.497C25.8872 31.358 21.9956 32.542 15.8481 32.542C8.91106 32.542 6.5423 30.117 6.2603 29.779L5.63991 28.989L0 32.937C1.80477 35.193 4.06073 36.941 6.65509 38.182C9.41865 39.479 12.5206 40.1 15.5662 39.987H15.7917Z" fill="#9A02CD"/>
<path d="M66.9938 32.3731V8.7981H59.7747V25.6051C59.8311 28.0871 58.5339 30.3431 56.3907 31.5831C55.3191 32.2041 54.1348 32.4861 52.9504 32.4861C51.766 32.4861 50.5816 32.2041 49.51 31.5831C47.3669 30.3431 46.0697 28.0871 46.1261 25.6051V8.7981H38.907V25.6051C38.907 33.3881 45.1673 39.6491 52.9504 39.6491C55.8267 39.6491 58.6467 38.7461 60.9591 37.1111L61.3538 36.8291L61.6922 37.2231C63.1022 38.8031 65.0762 39.6491 67.163 39.5921H68.1781V32.3731H66.9938Z" fill="#9A02CD"/>
<path d="M94.275 11.6181C92.2446 9.75706 89.5374 8.68506 86.7739 8.68506C85.5331 8.74206 84.4051 9.41907 83.7847 10.4901L82.7131 12.4081V8.74207H75.4941V39.5921H82.7131V19.9651C82.7131 17.7091 84.5179 15.9051 86.7739 15.9051C87.7327 15.9051 88.635 16.2991 89.3682 16.9761L90.1014 17.6531L95.0081 12.2951L94.275 11.6181Z" fill="#9A02CD"/>
<path d="M115.508 8.68512H106.935V0.620117H99.7162V28.0871C99.7162 32.0351 102.818 39.5361 114.493 39.5361H115.508V32.3731H114.493C107.443 32.3731 106.935 28.8201 106.935 28.0871V15.9051H115.508V8.68512Z" fill="#9A02CD"/>
<path d="M149.83 32.3731V8.7981H142.611V25.6051C142.667 28.0871 141.37 30.3431 139.227 31.5831C138.155 32.2041 136.971 32.4861 135.787 32.4861C134.602 32.4861 133.418 32.2041 132.346 31.5831C130.203 30.3431 128.906 28.0871 128.962 25.6051V8.7981H121.743V25.6051C121.743 33.3881 128.003 39.6491 135.787 39.6491C138.663 39.6491 141.483 38.7461 143.795 37.1111L144.19 36.8291L144.528 37.2231C145.938 38.8031 147.912 39.6491 149.999 39.5921H151.014V32.3731H149.83Z" fill="#9A02CD"/>
</svg>
