<svg width="107" height="107" viewBox="0 0 107 107" fill="none" xmlns="http://www.w3.org/2000/svg">
<mask id="mask0_303_15" style="mask-type:luminance" maskUnits="userSpaceOnUse" x="0" y="0" width="107" height="107">
<path d="M106.216 0.783203H0V106.999H106.216V0.783203Z" fill="white"/>
</mask>
<g mask="url(#mask0_303_15)">
<path d="M40.5349 34.4097C38.6899 34.4097 36.9556 35.1284 35.6496 36.4343C34.3437 37.7403 33.6268 39.4729 33.6268 41.3196C33.6268 43.1662 34.3454 44.8989 35.6496 46.2048C36.9556 47.509 38.6899 48.2277 40.5349 48.2277C42.3798 48.2277 44.1159 47.509 45.4201 46.2048C46.7244 44.9006 47.4447 43.1645 47.4447 41.3196C47.4447 39.4746 46.7261 37.7385 45.4201 36.4343C44.1159 35.1284 42.3815 34.4097 40.5349 34.4097Z" fill="#7321E8"/>
<path d="M58.7854 66.4784C58.7854 68.3233 59.504 70.0577 60.81 71.3637C62.1556 72.7111 63.9246 73.3831 65.6952 73.3831C67.4658 73.3831 69.233 72.7111 70.5805 71.3637C73.2736 68.6688 73.2736 64.2863 70.5805 61.5932C67.8856 58.8983 63.5031 58.8983 60.81 61.5932C59.504 62.8974 58.7854 64.6335 58.7854 66.4784Z" fill="#9A01CD"/>
<path d="M90.624 16.3009C80.598 6.2938 67.2741 0.783203 53.109 0.783203C42.587 0.783203 32.414 3.85635 23.6921 9.67098C22.837 10.241 22.2877 11.1531 22.1857 12.174C22.0838 13.188 22.438 14.1848 23.1583 14.9069C24.3002 16.0539 26.1036 16.2353 27.4459 15.3405C29.847 13.7374 32.4192 12.352 35.0881 11.2239C40.7939 8.8107 46.8573 7.58766 53.1107 7.58766C59.3641 7.58766 65.4257 8.8107 71.1315 11.2239C76.6439 13.5543 81.596 16.8934 85.851 21.1482C90.106 25.4029 93.445 30.3538 95.777 35.8678C98.19 41.5754 99.413 47.6387 99.413 53.8904C99.413 60.1421 98.19 66.2055 95.777 71.9113C93.445 77.4253 90.106 82.3779 85.851 86.6327C81.596 90.8874 76.6439 94.2266 71.1315 96.5569C65.4257 98.9702 59.3624 100.193 53.1107 100.193C46.859 100.193 40.7939 98.9702 35.0881 96.5569C29.5758 94.2266 24.6232 90.8874 20.3685 86.6327C16.1137 82.3779 12.7746 77.4236 10.4442 71.9113C8.031 66.2106 6.8079 60.1473 6.8079 53.8904C6.8079 47.6336 8.031 41.5702 10.4442 35.8678C11.5308 33.2974 12.8557 30.8185 14.3794 28.4985C15.2414 27.1874 15.0479 25.4392 13.9199 24.3422L13.7627 24.1885C13.0561 23.4992 12.0888 23.1658 11.1058 23.2729C10.1298 23.3783 9.2609 23.9086 8.7237 24.7257C3.0161 33.3924 0 43.4773 0 53.8921C0 68.059 5.5106 81.3829 15.5178 91.4091C25.5232 101.435 38.835 106.972 52.9967 107.001C53.0347 107.001 53.0692 107.001 53.1072 107.001C60.233 107.001 67.1601 105.599 73.6934 102.833C80.031 100.15 85.729 96.3064 90.624 91.4108C95.522 86.5135 99.363 80.818 102.046 74.48C104.826 67.9122 106.228 60.9488 106.214 53.7833C106.185 39.6199 100.649 26.3098 90.622 16.3044L90.624 16.3009Z" fill="#9A01CD"/>
<path d="M92.0529 66.0018L82.5519 74.5683C78.1179 78.5656 72.3944 80.8804 66.4346 81.0894H66.407C66.1323 81.105 65.8611 81.1136 65.6003 81.1136C57.5538 81.1136 51.0067 74.5665 51.0067 66.52C51.0067 62.9649 52.3092 59.5359 54.6724 56.8636L54.9868 56.5129L56.519 54.8286L56.5726 54.7664C58.0064 52.9906 59.1948 50.9418 60.0067 48.8412C60.9378 46.4401 61.4094 43.9042 61.4094 41.3061C61.4094 34.7745 58.4382 28.7388 53.2558 24.7484L53.0002 24.5514L52.9674 24.5445C49.3535 21.8635 45.0677 20.4487 40.5504 20.4487C35.0951 20.4487 30.0129 22.4146 26.2263 25.9921C26.0674 26.1442 25.9102 26.2979 25.7547 26.4534L25.6977 26.5104C18.4026 33.821 14.3846 43.5345 14.3846 53.863C14.3846 64.1914 18.413 73.9308 25.7271 81.2449C33.0411 88.559 42.765 92.5874 53.109 92.5874C59.3676 92.5874 65.5847 91.0586 71.0884 88.1668C74.8456 86.1941 78.2729 83.5856 81.2029 80.5021H81.2039C81.2039 80.5021 85.1079 77.2832 92.0529 66.0001V66.0018ZM53.1073 86.3703C48.7195 86.3703 44.4631 85.5117 40.4571 83.8171C36.5876 82.1812 33.1102 79.8353 30.1234 76.8485C27.1367 73.8617 24.7908 70.3844 23.1549 66.5149C21.4602 62.5089 20.6017 58.2524 20.6017 53.8647C20.6017 50.2128 21.1994 46.6387 22.3775 43.2391L22.3862 43.2166C23.9927 38.2986 27.2645 34.2356 28.4374 32.8812L28.4962 32.8864L28.9574 32.2956C31.7645 28.7008 35.9813 26.6399 40.5227 26.6399C48.6107 26.6399 55.1906 33.2216 55.1906 41.3095C55.1906 45.1859 53.686 48.843 50.9531 51.6104L50.5541 52.0163V52.0284C48.3326 54.4036 46.6725 57.2695 45.7207 60.3703L45.7034 60.3841L45.579 60.8194C45.0539 62.6678 44.7861 64.5853 44.7861 66.5218C44.7861 71.8182 46.7761 76.8641 50.3917 80.7301C52.5873 83.0795 55.2545 84.8605 58.1912 85.9781C56.519 86.2407 54.8209 86.372 53.1056 86.372L53.1073 86.3703Z" fill="#7321E8"/>
</g>
</svg>
